0
SECTION
2
HEADER
9
$INSUNITS
70
1
9
$ACADVER
1
AC1014
9
$HANDSEED
5
FFFF
0
ENDSEC
0
SECTION
2
TABLES
0
TABLE
2
VPORT
5
8
100
AcDbSymbolTable
0
ENDTAB
0
TABLE
2
LTYPE
5
5
100
AcDbSymbolTable
0
LTYPE
5
14
100
AcDbSymbolTableRecord
100
AcDbLinetypeTableRecord
2
BYBLOCK
70
0
0
LTYPE
5
15
100
AcDbSymbolTableRecord
100
AcDbLinetypeTableRecord
2
BYLAYER
70
0
0
ENDTAB
0
TABLE
2
LAYER
5
2
100
AcDbSymbolTable
70
2
0
LAYER
5
50
100
AcDbSymbolTableRecord
100
AcDbLayerTableRecord
2
0
70
0
6
CONTINUOUS
0
ENDTAB
0
TABLE
2
STYLE
5
3
100
AcDbSymbolTable
70
1
0
STYLE
5
11
100
AcDbSymbolTableRecord
100
AcDbTextStyleTableRecord
2
STANDARD
70
0
0
ENDTAB
0
TABLE
2
VIEW
5
6
100
AcDbSymbolTable
70
0
0
ENDTAB
0
TABLE
2
UCS
5
7
100
AcDbSymbolTable
70
0
0
ENDTAB
0
TABLE
2
APPID
5
9
100
AcDbSymbolTable
70
2
0
APPID
5
12
100
AcDbSymbolTableRecord
100
AcDbRegAppTableRecord
2
ACAD
70
0
0
ENDTAB
0
TABLE
2
DIMSTYLE
5
A
100
AcDbSymbolTable
70
1
0
ENDTAB
0
TABLE
2
BLOCK_RECORD
5
1
100
AcDbSymbolTable
70
1
0
BLOCK_RECORD
5
1F
100
AcDbSymbolTableRecord
100
AcDbBlockTableRecord
2
*MODEL_SPACE
0
BLOCK_RECORD
5
1B
100
AcDbSymbolTableRecord
100
AcDbBlockTableRecord
2
*PAPER_SPACE
0
ENDTAB
0
ENDSEC
0
SECTION
2
BLOCKS
0
BLOCK
5
20
100
AcDbEntity
100
AcDbBlockBegin
2
*MODEL_SPACE
0
ENDBLK
5
21
100
AcDbEntity
100
AcDbBlockEnd
0
BLOCK
5
1C
100
AcDbEntity
100
AcDbBlockBegin
2
*PAPER_SPACE
0
ENDBLK
5
1D
100
AcDbEntity
100
AcDbBlockEnd
0
ENDSEC
0
SECTION
2
ENTITIES
0
LINE
5
100
100
AcDbEntity
8
0
100
AcDbLine
10
0
20
0
30
0
11
6
21
0
31
0
0
LINE
5
101
100
AcDbEntity
8
0
100
AcDbLine
10
6
20
0
30
0
11
6
21
-6
31
0
0
LINE
5
102
100
AcDbEntity
8
0
100
AcDbLine
10
6
20
-6
30
0
11
0
21
-6
31
0
0
LINE
5
103
100
AcDbEntity
8
0
100
AcDbLine
10
0
20
-6
30
0
11
0
21
0
31
0
0
LINE
5
104
100
AcDbEntity
8
0
100
AcDbLine
10
0
20
-6
30
0
11
3
21
-6
31
0
0
LINE
5
105
100
AcDbEntity
8
0
100
AcDbLine
10
3
20
-6
30
0
11
3
21
-1.5
31
0
0
LINE
5
106
100
AcDbEntity
8
0
100
AcDbLine
10
3
20
-1.5
30
0
11
0
21
-1.5
31
0
0
LINE
5
107
100
AcDbEntity
8
0
100
AcDbLine
10
0
20
-1.5
30
0
11
0
21
-6
31
0
0
LINE
5
108
100
AcDbEntity
8
0
100
AcDbLine
10
3
20
-6
30
0
11
6
21
-6
31
0
0
LINE
5
109
100
AcDbEntity
8
0
100
AcDbLine
10
6
20
-6
30
0
11
6
21
-1.5
31
0
0
LINE
5
110
100
AcDbEntity
8
0
100
AcDbLine
10
6
20
-1.5
30
0
11
3
21
-1.5
31
0
0
LINE
5
111
100
AcDbEntity
8
0
100
AcDbLine
10
3
20
-1.5
30
0
11
3
21
-6
31
0
0
LINE
5
112
100
AcDbEntity
8
0
100
AcDbLine
10
0
20
-1.5
30
0
11
0.59999999999999998
21
-1.5
31
0
0
LINE
5
113
100
AcDbEntity
8
0
100
AcDbLine
10
0
20
-1.5
30
0
11
2.6099999999999994
21
-1.5
31
0
0
LINE
5
114
100
AcDbEntity
8
0
100
AcDbLine
10
0.59999999999999998
20
-1.5
30
0
11
2.6099999999999994
21
-1.5
31
0
0
LINE
5
115
100
AcDbEntity
8
0
100
AcDbLine
10
2.6099999999999994
20
-1.5
30
0
11
2.6099999999999994
21
-3.3000000000000003
31
0
0
LINE
5
116
100
AcDbEntity
8
0
100
AcDbLine
10
2.6099999999999994
20
-3.3000000000000003
30
0
11
0.59999999999999998
21
-3.3000000000000003
31
0
0
LINE
5
117
100
AcDbEntity
8
0
100
AcDbLine
10
0.59999999999999998
20
-3.3000000000000003
30
0
11
0.59999999999999998
21
-1.5
31
0
0
LINE
5
118
100
AcDbEntity
8
0
100
AcDbLine
10
5.4000000000000004
20
-3.3000000000000003
30
0
11
5.4000000000000004
21
-1.5
31
0
0
LINE
5
119
100
AcDbEntity
8
0
100
AcDbLine
10
3.3900000000000001
20
-3.3000000000000003
30
0
11
5.4000000000000004
21
-3.3000000000000003
31
0
0
LINE
5
120
100
AcDbEntity
8
0
100
AcDbLine
10
3.3900000000000001
20
-1.5
30
0
11
3.3900000000000001
21
-3.3000000000000003
31
0
0
LWPOLYLINE
5
121
100
AcDbEntity
8
0
100
AcDbPolyline
90
8
70
1
43
0.0
10
1.9999999999999998
20
0
10
0
20
0
10
0
20
-1.5
10
1.9999999999999998
20
-1.5
10
1.9999999999999998
20
0
10
3.9999999999999996
20
0
10
3.9999999999999996
20
-1.5
10
1.9999999999999998
20
-1.5
0
LINE
5
122
100
AcDbEntity
8
0
100
AcDbLine
10
0.59999999999999998
20
-1.5
30
0
11
0.99999999999999989
21
-1.5
31
0
0
LINE
5
123
100
AcDbEntity
8
0
100
AcDbLine
10
2.6099999999999994
20
-1.5
30
0
11
2.1599999999999997
21
-1.5
31
0
0
LINE
5
124
100
AcDbEntity
8
0
100
AcDbLine
10
2.1599999999999997
20
-2.5
30
0
11
2.1599999999999997
21
-1.5
31
0
0
LINE
5
125
100
AcDbEntity
8
0
100
AcDbLine
10
1.1599025359438491
20
-2.5
30
0
11
0.92699638456166222
21
-2.7143027678602163
31
0
0
LINE
5
126
100
AcDbEntity
8
0
100
AcDbLine
10
0.99999999999999989
20
-2.1159152133895249
30
0
11
0.76911403023256131
21
-2.5974816129866927
31
0
0
ARC
5
127
100
AcDbEntity
8
0
100
AcDbCircle
10
0.85928575054387812
20
-2.6407142494561215
30
0
40
0.10000000000000014
100
AcDbArc
50
154.38471206553905
51
312.61793398908236
0
LINE
5
128
100
AcDbEntity
8
0
100
AcDbLine
10
0.99999999999999989
20
-2.1159152133895249
30
0
11
0.99999999999999989
21
-1.5
31
0
0
LINE
5
129
100
AcDbEntity
8
0
100
AcDbLine
10
1.1599025359438491
20
-2.5
30
0
11
2.1599999999999997
21
-2.5
31
0
0
LINE
5
130
100
AcDbEntity
8
0
100
AcDbLine
10
3.7899999999999996
20
-2.1159152133895249
30
0
11
3.5591140302325615
21
-2.5974816129866927
31
0
0
ARC
5
131
100
AcDbEntity
8
0
100
AcDbCircle
10
3.649285750543878
20
-2.6407142494561215
30
0
40
0.10000000000000037
100
AcDbArc
50
154.38471206553902
51
312.61793398908253
0
LINE
5
132
100
AcDbEntity
8
0
100
AcDbLine
10
3.9499025359438491
20
-2.5
30
0
11
3.7169963845616625
21
-2.7143027678602163
31
0
0
LINE
5
133
100
AcDbEntity
8
0
100
AcDbLine
10
3.9499025359438491
20
-2.5
30
0
11
4.9500000000000002
21
-2.5
31
0
0
LINE
5
134
100
AcDbEntity
8
0
100
AcDbLine
10
3.7899999999999996
20
-2.1159152133895249
30
0
11
3.7899999999999996
21
-1.5
31
0
0
LINE
5
135
100
AcDbEntity
8
0
100
AcDbLine
10
4.9500000000000002
20
-2.5
30
0
11
4.9500000000000002
21
-1.5
31
0
0
ENDSEC
0
SECTION
2
OBJECTS
0
DICTIONARY
5
C
100
AcDbDictionary
3
ACAD_GROUP
350
D
3
ACAD_MLINESTYLE
350
17
0
DICTIONARY
5
D
100
AcDbDictionary
0
DICTIONARY
5
1A
330
C
100
AcDbDictionary
0
DICTIONARY
5
17
100
AcDbDictionary
0
ENDSEC
0
EOF
